<svg xmlns="http://www.w3.org/2000/svg" width="60" height="60" viewBox="0 0 60 60" fill="none">
  <circle cx="30" cy="30" r="30" fill="white"/>
  <path d="M30 11.6667C25.1891 11.6178 20.5556 13.481 17.1178 16.8469C13.6801 20.2127 11.7194 24.8058 11.6666 29.6167C11.6852 33.4186 12.9082 37.1169 15.1601 40.1802C17.4119 43.2436 20.5767 45.5145 24.2 46.6667C25.1166 46.8333 25.45 46.2833 25.45 45.8C25.45 45.3167 25.45 44.25 25.45 42.75C20.35 43.8333 19.2666 40.35 19.2666 40.35C18.9271 39.2565 18.2053 38.3217 17.2333 37.7167C15.5666 36.6167 17.3666 36.6333 17.3666 36.6333C17.9427 36.7103 18.4939 36.9168 18.9788 37.2372C19.4637 37.5576 19.8698 37.9836 20.1666 38.4833C20.6838 39.3802 21.5325 40.0381 22.53 40.3156C23.5274 40.593 24.5939 40.4677 25.5 39.9667C25.5931 39.054 26.0064 38.2037 26.6666 37.5667C22.6 37.1167 18.3333 35.5833 18.3333 28.7C18.2969 26.9045 18.9604 25.1652 20.1833 23.85C19.6263 22.3084 19.6921 20.6105 20.3666 19.1167C20.3666 19.1167 21.9166 18.6333 25.3666 20.95C28.3698 20.1497 31.5301 20.1497 34.5333 20.95C38.0333 18.6333 39.5333 19.1167 39.5333 19.1167C40.2078 20.6105 40.2736 22.3084 39.7166 23.85C40.968 25.1411 41.6674 26.8687 41.6666 28.6667C41.6666 35.5667 37.3666 37.0833 33.3333 37.5333C33.7749 37.9621 34.1161 38.4834 34.3322 39.0598C34.5483 39.6361 34.6341 40.2532 34.5833 40.8667V45.7833C34.5833 45.7833 34.9166 46.8333 35.8333 46.65C39.4462 45.4907 42.6004 43.2193 44.8453 40.1602C47.0902 37.1012 48.311 33.411 48.3333 29.6167C48.2805 24.8058 46.3198 20.2127 42.8821 16.8469C39.4443 13.481 34.8109 11.6178 30 11.6667Z" fill="#B352C4" fill-opacity="0.99"/>
</svg>