<svg xmlns="http://www.w3.org/2000/svg" width="60" height="60" viewBox="0 0 60 60" fill="none">
  <circle cx="30" cy="30.0002" r="30" fill="white"/>
  <path d="M35.2501 24.0002C33.9727 23.9959 32.707 24.2434 31.5253 24.7287C30.3437 25.214 29.2693 25.9275 28.3637 26.8285C27.4581 27.7294 26.7391 28.8001 26.2477 29.9792C25.7564 31.1584 25.5023 32.4228 25.5001 33.7002V43.5002C25.5001 43.8981 25.6582 44.2796 25.9395 44.5609C26.2208 44.8422 26.6023 45.0002 27.0001 45.0002H30.5001C30.8979 45.0002 31.2795 44.8422 31.5608 44.5609C31.8421 44.2796 32.0001 43.8981 32.0001 43.5002V33.7002C31.9998 33.2459 32.0952 32.7966 32.2802 32.3816C32.4651 31.9666 32.7355 31.5953 33.0736 31.2918C33.4117 30.9883 33.8099 30.7595 34.2424 30.6202C34.6748 30.481 35.1318 30.4344 35.5835 30.4836C36.3935 30.5856 37.1379 30.9813 37.6755 31.5958C38.2131 32.2102 38.5065 33.0005 38.5001 33.8169V43.5002C38.5001 43.8981 38.6582 44.2796 38.9395 44.5609C39.2208 44.8422 39.6023 45.0002 40.0001 45.0002H43.5001C43.8979 45.0002 44.2795 44.8422 44.5608 44.5609C44.8421 44.2796 45.0001 43.8981 45.0001 43.5002V33.7002C44.9979 32.4228 44.7439 31.1584 44.2525 29.9792C43.7611 28.8001 43.0421 27.7294 42.1365 26.8285C41.2309 25.9275 40.1566 25.214 38.9749 24.7287C37.7933 24.2434 36.5275 23.9959 35.2501 24.0002Z" fill="#B352C4" fill-opacity="0.99"/>
  <path d="M21.0001 25.5003H16.5001C15.6716 25.5003 15.0001 26.1718 15.0001 27.0003V43.5003C15.0001 44.3287 15.6716 45.0003 16.5001 45.0003H21.0001C21.8285 45.0003 22.5001 44.3287 22.5001 43.5003V27.0003C22.5001 26.1718 21.8285 25.5003 21.0001 25.5003Z" fill="#B352C4" fill-opacity="0.99"/>
  <path d="M18.7499 22.5002C20.821 22.5002 22.4999 20.8213 22.4999 18.7502C22.4999 16.6792 20.821 15.0002 18.7499 15.0002C16.6789 15.0002 14.9999 16.6792 14.9999 18.7502C14.9999 20.8213 16.6789 22.5002 18.7499 22.5002Z" fill="#B352C4" fill-opacity="0.99"/>
</svg>